<?xml version="1.0" encoding="utf-8"?>
<!-- Generator: Adobe Illustrator 16.0.0, SVG Export Plug-In . SVG Version: 6.00 Build 0)  -->
<!DOCTYPE svg PUBLIC "-//W3C//DTD SVG 1.1//EN" "http://www.w3.org/Graphics/SVG/1.1/DTD/svg11.dtd">
<svg version="1.1" id="圖層_1" xmlns="http://www.w3.org/2000/svg" xmlns:xlink="http://www.w3.org/1999/xlink" x="0px" y="0px"
	 width="50px" height="50px" viewBox="0 0 50 50" enable-background="new 0 0 50 50" xml:space="preserve">
<polygon fill="#FFFFFF" points="3.3,14.1 6.8,14.1 6.8,6.8 14.1,6.8 14.1,3.3 3.3,3.3 "/>
<polygon fill="#FFFFFF" points="35.9,3.3 35.9,6.8 43.2,6.8 43.2,14.1 46.7,14.1 46.7,3.3 "/>
<polygon fill="#FFFFFF" points="43.2,43.2 35.9,43.2 35.9,46.7 46.7,46.7 46.7,35.9 43.2,35.9 "/>
<polygon fill="#FFFFFF" points="6.8,35.9 3.3,35.9 3.3,46.7 14.1,46.7 14.1,43.2 6.8,43.2 "/>
<polygon fill="#FFFFFF" points="36.039,33.963 40.352,29.481 44.667,25 40.352,20.52 36.039,16.037 36.039,22.774 13.96,22.774 
	13.96,16.037 9.648,20.52 5.333,25.001 9.648,29.481 13.96,33.963 13.96,27.227 36.039,27.228 "/>
</svg>
