<?xml version="1.0" encoding="utf-8"?>
<!-- Generator: Adobe Illustrator 16.0.0, SVG Export Plug-In . SVG Version: 6.00 Build 0)  -->
<!DOCTYPE svg PUBLIC "-//W3C//DTD SVG 1.1//EN" "http://www.w3.org/Graphics/SVG/1.1/DTD/svg11.dtd">
<svg version="1.1" id="圖層_1" xmlns="http://www.w3.org/2000/svg" xmlns:xlink="http://www.w3.org/1999/xlink" x="0px" y="0px"
	 width="50px" height="50px" viewBox="0 0 50 50" enable-background="new 0 0 50 50" xml:space="preserve">
<polygon fill="#FFFFFF" points="3.3,14.1 6.8,14.1 6.8,6.8 14.1,6.8 14.1,3.3 3.3,3.3 "/>
<polygon fill="#FFFFFF" points="35.9,3.3 35.9,6.8 43.2,6.8 43.2,14.1 46.7,14.1 46.7,3.3 "/>
<polygon fill="#FFFFFF" points="43.2,43.2 35.9,43.2 35.9,46.7 46.7,46.7 46.7,35.9 43.2,35.9 "/>
<polygon fill="#FFFFFF" points="6.8,35.9 3.3,35.9 3.3,46.7 14.1,46.7 14.1,43.2 6.8,43.2 "/>
<polygon fill="#FFFFFF" points="33.963,13.961 29.481,9.648 25,5.333 20.52,9.648 16.037,13.961 22.774,13.961 22.774,36.04 
	16.037,36.04 20.52,40.352 25.001,44.667 29.481,40.352 33.963,36.04 27.227,36.04 27.228,13.961 "/>
</svg>
