<?xml version="1.0" encoding="utf-8"?>
<!-- Generator: Adobe Illustrator 16.0.0, SVG Export Plug-In . SVG Version: 6.00 Build 0)  -->
<!DOCTYPE svg PUBLIC "-//W3C//DTD SVG 1.1//EN" "http://www.w3.org/Graphics/SVG/1.1/DTD/svg11.dtd">
<svg version="1.1" id="圖層_1" xmlns="http://www.w3.org/2000/svg" xmlns:xlink="http://www.w3.org/1999/xlink" x="0px" y="0px"
	 width="50px" height="50px" viewBox="0 0 50 50" enable-background="new 0 0 50 50" xml:space="preserve">
<polygon fill="#FFFFFF" points="7.8,6.8 15.1,6.8 15.1,3.3 4.3,3.3 4.3,14.1 7.8,14.1 "/>
<polygon fill="#FFFFFF" points="36.9,3.3 36.9,6.8 44.2,6.8 44.2,14.1 47.7,14.1 47.7,3.3 "/>
<polygon fill="#FFFFFF" points="44.2,43.2 36.9,43.2 36.9,46.7 47.7,46.7 47.7,35.9 44.2,35.9 "/>
<polygon fill="#FFFFFF" points="7.8,35.9 4.3,35.9 4.3,46.7 15.1,46.7 15.1,43.2 7.8,43.2 "/>
<polygon fill="#FFFFFF" points="28.227,27.226 37.04,27.226 37.04,33.963 41.352,29.48 45.667,24.999 41.352,20.519 37.04,16.037 
	37.04,22.773 28.228,22.773 28.228,13.961 34.963,13.961 30.481,9.648 26,5.333 21.52,9.648 17.037,13.961 23.774,13.961 
	23.774,22.773 14.961,22.773 14.961,16.037 10.648,20.519 6.333,25 10.648,29.48 14.961,33.963 14.961,27.226 23.774,27.226 
	23.774,36.04 17.037,36.04 21.52,40.352 26.001,44.667 30.481,40.352 34.963,36.04 28.227,36.04 "/>
</svg>
