<?xml version="1.0" encoding="utf-8"?>
<!-- Generator: Adobe Illustrator 20.1.0, SVG Export Plug-In . SVG Version: 6.00 Build 0)  -->
<svg version="1.2" baseProfile="tiny" id="圖層_1"
	 xmlns="http://www.w3.org/2000/svg" xmlns:xlink="http://www.w3.org/1999/xlink" x="0px" y="0px" viewBox="0 0 50 50"
	 overflow="scroll" xml:space="preserve">
<g>
	<path fill="#FFFFFF" d="M47.7,26.3c-0.7-1-2-1.6-3.6-1.6h-3.3v-4.5c0-2.8-2.3-5.1-5.1-5.1h-1.2v3.5h1.2c0.9,0,1.6,0.7,1.6,1.6v4.5
		h-22c-2.5,0-5,1.3-5.8,3.1L5.4,37V20.2c0-0.9,0.7-1.6,1.6-1.6h18.3v-3.5h-6.4v-0.6c0-2.8-2.3-5.1-5.1-5.1H7c-2.8,0-5.1,2.3-5.1,5.1
		v5.2c0,0.1,0,0.1,0,0.2c0,0.1,0,0.1,0,0.2v22c0,2.8,2.3,5.1,5.1,5.1h28.7c1.6,0,3-0.8,4-1.9c0.6-0.5,1.1-1,1.4-1.6l6.8-14.7
		C48.3,28.2,48.2,27.2,47.7,26.3z M12.4,29.1c0.2-0.5,1.6-1.3,3-1.3h22v14.4c0,0.6-0.4,1.2-0.9,1.4c-0.4,0.1-0.7,0.2-1.1,0.2H7
		c-0.5,0-0.9-0.2-1.2-0.5L12.4,29.1z M5,15.5c0.2-0.1,0.3-0.1,0.5-0.2C5.4,15.4,5.2,15.4,5,15.5z M6,15.2c0.3-0.1,0.7-0.1,1-0.1
		C6.6,15.1,6.3,15.1,6,15.2z M3.5,16.4C3.5,16.5,3.5,16.5,3.5,16.4C3.5,16.5,3.5,16.5,3.5,16.4z M4.4,15.8c-0.1,0-0.2,0.1-0.3,0.1
		C4.3,15.9,4.4,15.8,4.4,15.8z M40.8,37v-9.2h3.3c0.5,0,0.7,0.1,0.9,0.2L40.8,37z"/>
	<path fill="#FFFFFF" d="M23.8,11.4c0.4,0,0.8-0.1,1.1-0.4l3.3-3.2v13.1c0,0.8,0.7,1.5,1.5,1.5c0.8,0,1.5-0.7,1.5-1.5V7.8l3.3,3.2
		c0.3,0.3,0.7,0.4,1.1,0.4c0.4,0,0.8-0.2,1.1-0.5c0.6-0.6,0.6-1.6,0-2.2l-5.9-5.7c0,0,0,0,0,0c-0.1-0.1-0.3-0.2-0.4-0.3c0,0,0,0,0,0
		c0,0,0,0,0,0c0,0,0,0,0,0c-0.1-0.1-0.3-0.1-0.5-0.1c0,0,0,0,0,0c0,0,0,0,0,0c0,0,0,0,0,0c0,0,0,0,0,0c-0.2,0-0.3,0-0.5,0.1
		c0,0,0,0-0.1,0c0,0,0,0,0,0c0,0,0,0,0,0c-0.2,0.1-0.3,0.2-0.4,0.3c0,0,0,0,0,0l-5.9,5.7c-0.6,0.6-0.6,1.6,0,2.2
		C23,11.3,23.4,11.4,23.8,11.4z"/>
</g>
</svg>
